Coordinates
version=1
nRows=22
nColumns=24
inDegrees=yes

Units are S.I. units (second, meters, Newtons, ...)
Angles are in degrees.

endheader
time	pelvis_tilt	pelvis_list	pelvis_rotation	pelvis_tx	pelvis_ty	pelvis_tz	hip_flexion_r	hip_adduction_r	hip_rotation_r	knee_angle_r	ankle_angle_r	subtalar_angle_r	mtp_angle_r	hip_flexion_l	hip_adduction_l	hip_rotation_l	knee_angle_l	ankle_angle_l	subtalar_angle_l	mtp_angle_l	lumbar_extension	lumbar_bending	lumbar_rotation
      3.87000000	     60.08282924	      3.41458009	      8.60109754	      0.77904678	      1.08466244	     -0.27610056	     -2.73694815	    -11.12156465	     -3.89713373	    -52.08761413	    -16.39173228	      0.44690260	     46.92584047	     10.92143635	    -18.30612041	      0.77277901	    -68.26165335	     -6.01722777	     14.90077263	    -42.69081106	      0.00000000	      0.00000000	      0.00000000
      3.88000000	     60.02585053	      3.41184433	      8.59882410	      0.77912771	      1.08467985	     -0.27608244	     -2.69655253	    -11.09332910	     -3.88281783	    -52.16699084	    -16.42907633	      0.45128528	     47.16066045	     10.92346615	    -18.25095092	      0.81757249	    -67.91688594	     -6.03139748	     14.76451531	    -42.55978393	      0.00000000	      0.00000000	      0.00000000
      3.89000000	     59.98076405	      3.41197356	      8.59462743	      0.77918076	      1.08469673	     -0.27606165	     -2.65762225	    -11.07141680	     -3.86889754	    -52.26507725	    -16.46022505	      0.46276694	     47.37572824	     10.91264550	    -18.20500817	      0.87134929	    -67.56193715	     -6.04029804	     14.62751699	    -42.41266373	      0.00000000	      0.00000000	      0.00000000
      3.90000000	     59.95193363	      3.41487630	      8.58863619	      0.77920326	      1.08471931	     -0.27604204	     -2.62497918	    -11.05539062	     -3.85725783	    -52.37737057	    -16.48672084	      0.48267528	     47.57806564	     10.88623069	    -18.16841628	      0.93339584	    -67.19716578	     -6.03990912	     14.49764789	    -42.25060661	      0.00000000	      0.00000000	      0.00000000
      3.91000000	     59.94008208	      3.41916697	      8.58104494	      0.77920399	      1.08473829	     -0.27601513	     -2.60263849	    -11.04341326	     -3.85040745	    -52.49662168	    -16.50856498	      0.51166878	     47.77884167	     10.84447589	    -18.13983268	      1.00035282	    -66.82408201	     -6.02847862	     14.37997739	    -42.07657118	      0.00000000	      0.00000000	      0.00000000
      3.92000000	     59.94321637	      3.42388209	      8.57147697	      0.77918652	      1.08475007	     -0.27597694	     -2.59375427	    -11.03383506	     -3.85001520	    -52.61450015	    -16.52418596	      0.54985771	     47.99094837	     10.78970448	    -18.11817057	      1.06886386	    -66.44641668	     -6.00639458	     14.27674295	    -41.89513843	      0.00000000	      0.00000000	      0.00000000
      3.93000000	     59.95895139	      3.42970119	      8.55890035	      0.77913891	      1.08477504	     -0.27593726	     -2.59986672	    -11.02660433	     -3.85550015	    -52.72352674	    -16.53148571	      0.59687743	     48.22627674	     10.72557097	    -18.10392139	      1.13796596	    -66.06926999	     -5.97547185	     14.18780823	    -41.71186189	      0.00000000	      0.00000000	      0.00000000
      3.94000000	     59.98595154	      3.43832613	      8.54307956	      0.77905116	      1.08483513	     -0.27590494	     -2.62012836	    -11.02332549	     -3.86394323	    -52.81946425	    -16.52956958	      0.65170871	     48.49317293	     10.65595540	    -18.09863646	      1.20906005	    -65.69748349	     -5.93804475	     14.11145101	    -41.53227034	      0.00000000	      0.00000000	      0.00000000
      3.95000000	     60.02350843	      3.45090428	      8.52594807	      0.77894842	      1.08490776	     -0.27587819	     -2.65152891	    -11.02599686	     -3.87167223	    -52.90407430	    -16.52040814	      0.71223970	     48.79453664	     10.58409703	    -18.10334530	      1.28401010	    -65.33416053	     -5.89631466	     14.04535441	    -41.36076458	      0.00000000	      0.00000000	      0.00000000
      3.96000000	     60.06953758	      3.46642701	      8.51120899	      0.77887822	      1.08492288	     -0.27584286	     -2.69025813	    -11.03568094	     -3.87666758	    -52.98682647	    -16.50948751	      0.77480836	     49.12693016	     10.51237072	    -18.11725216	      1.36336639	    -64.98008577	     -5.85211601	     13.98757241	    -41.19968819	      0.00000000	      0.00000000	      0.00000000
      3.97000000	     60.11985876	      3.48222907	      8.50198091	      0.77884743	      1.08485536	     -0.27579155	     -2.73177956	    -11.05171157	     -3.88062418	    -53.08221900	    -16.50465680	      0.83416022	     49.48091584	     10.44263437	    -18.13784806	      1.44628013	    -64.63446374	     -5.80696418	     13.93721821	    -41.04879225	      0.00000000	      0.00000000	      0.00000000
      3.98000000	     60.17049331	      3.49711288	      8.49833411	      0.77880231	      1.08480144	     -0.27575223	     -2.76892150	    -11.07161967	     -3.88909110	    -53.20127870	    -16.51310853	      0.88421661	     49.84260353	     10.37702065	    -18.16231628	      1.53180198	    -64.29646774	     -5.76213128	     13.89465909	    -40.90520978	      0.00000000	      0.00000000	      0.00000000
      3.99000000	     60.21907746	      3.51262880	      8.49740733	      0.77870328	      1.08484753	     -0.27574990	     -2.79299667	    -11.09307381	     -3.90788898	    -53.34257368	    -16.53775141	      0.91962983	     50.19608574	     10.31886797	    -18.18882733	      1.62004005	    -63.96627564	     -5.71856151	     13.86110312	    -40.76397898	      0.00000000	      0.00000000	      0.00000000
      4.00000000	     60.26307916	      3.53066576	      8.49610719	      0.77857564	      1.08492583	     -0.27575622	     -2.79903908	    -11.11629493	     -3.93801312	    -53.49143824	    -16.57553512	      0.93756894	     50.52617872	     10.27275480	    -18.21676447	      1.71238041	    -63.64484927	     -5.67666448	     13.83766512	    -40.61912412	      0.00000000	      0.00000000	      0.00000000
      4.01000000	     60.29840267	      3.55090025	      8.49369849	      0.77845309	      1.08492860	     -0.27572745	     -2.78873638	    -11.14338269	     -3.97428035	    -53.62870386	    -16.61921354	      0.93890386	     50.82078807	     10.24267395	    -18.24580456	      1.81085872	    -63.33307022	     -5.63617048	     13.82414322	    -40.46527275	      0.00000000	      0.00000000	      0.00000000
      4.02000000	     60.32104219	      3.57121410	      8.49173764	      0.77833982	      1.08485351	     -0.27566318	     -2.76807188	    -11.17556256	     -4.00871037	    -53.74031526	    -16.66093093	      0.92810292	     51.07237315	     10.22980605	    -18.27530750	      1.91754708	    -63.03102013	     -5.59617108	     13.81787965	    -40.29971741	      0.00000000	      0.00000000	      0.00000000
      4.03000000	     60.32960121	      3.58999882	      8.49206331	      0.77823470	      1.08476818	     -0.27560382	     -2.74318160	    -11.21157988	     -4.03509037	    -53.82113140	    -16.69515059	      0.91173646	     51.27833617	     10.23185251	    -18.30484042	      2.03403589	    -62.73796578	     -5.55538735	     13.81326322	    -40.12470056	      0.00000000	      0.00000000	      0.00000000
      4.04000000	     60.32587178	      3.60683802	      8.49588323	      0.77814141	      1.08471295	     -0.27558005	     -2.71822110	    -11.24842451	     -4.05131847	    -53.87348444	    -16.71992250	      0.89619954	     51.44045736	     10.24399736	    -18.33453858	      2.16017628	    -62.45337056	     -5.51274830	     13.80240551	    -39.94953251	      0.00000000	      0.00000000	      0.00000000
      4.05000000	     60.31377694	      3.62144519	      8.50412018	      0.77806058	      1.08467375	     -0.27558002	     -2.69583849	    -11.28339072	     -4.05885565	    -53.90337521	    -16.73664139	      0.88566545	     51.56362993	     10.26092846	    -18.36484155	      2.29291378	    -62.17817528	     -5.46820584	     13.77706853	    -39.79200377	      0.00000000	      0.00000000	      0.00000000
      4.06000000	     60.29833710	      3.63358643	      8.51683225	      0.77799049	      1.08463027	     -0.27557720	     -2.67846787	    -11.31553170	     -4.06078417	    -53.91655526	    -16.74884254	      0.88111650	     51.65420104	     10.27897121	    -18.39649794	      2.42708433	    -61.91493180	     -5.42328122	     13.73120149	    -39.67851139	      0.00000000	      0.00000000	      0.00000000
      4.07000000	     60.28469063	      3.64395474	      8.53225740	      0.77793978	      1.08458795	     -0.27557344	     -2.66872701	    -11.34546231	     -4.05997291	    -53.91593880	    -16.76062580	      0.88072121	     51.71824608	     10.29633165	    -18.43065401	      2.55784902	    -61.66634164	     -5.38081726	     13.66315291	    -39.64248312	      0.00000000	      0.00000000	      0.00000000
      4.08000000	     60.27610841	      3.65376733	      8.54785336	      0.77792002	      1.08454915	     -0.27559039	     -2.66886046	    -11.37403291	     -4.05792934	    -53.90130452	    -16.77519162	      0.88119480	     51.76008201	     10.31050975	    -18.46826973	      2.68267371	    -61.43304247	     -5.34398292	     13.57686197	    -39.72100136	      0.00000000	      0.00000000	      0.00000000
